<svg width="36.000000" height="36.000000" viewBox="0 0 36 36" fill="none" xmlns="http://www.w3.org/2000/svg" xmlns:xlink="http://www.w3.org/1999/xlink">
	<desc>
			Created with Pixso.
	</desc>
	<defs>
		<clipPath id="clip1_160">
			<rect id="uim:linkedin-alt" width="36.000000" height="36.000000" fill="white" fill-opacity="0"/>
		</clipPath>
	</defs>
	<rect id="uim:linkedin-alt" width="36.000000" height="36.000000" fill="#FFFFFF" fill-opacity="0"/>
	<g clip-path="url(#clip1_160)">
		<path id="Vector" d="M7.5 10.49L7.46 10.49C7 10.52 6.54 10.46 6.1 10.3C5.67 10.14 5.27 9.9 4.94 9.58C4.6 9.26 4.34 8.88 4.16 8.45C3.98 8.03 3.89 7.57 3.9 7.11C3.9 6.64 4 6.19 4.19 5.77C4.38 5.35 4.66 4.97 5 4.66C5.34 4.35 5.75 4.12 6.18 3.97C6.62 3.82 7.08 3.77 7.54 3.81C8 3.78 8.47 3.84 8.9 4C9.34 4.15 9.73 4.39 10.07 4.71C10.41 5.02 10.68 5.41 10.86 5.83C11.04 6.26 11.13 6.71 11.13 7.17C11.13 7.64 11.03 8.09 10.84 8.51C10.65 8.94 10.38 9.32 10.04 9.63C9.7 9.94 9.3 10.18 8.86 10.33C8.42 10.48 7.96 10.53 7.5 10.49Z" fill="#2D76F9" fill-opacity="1.000000" fill-rule="nonzero"/>
		<path id="Vector" d="M4.52 15L10.52 15L10.52 33L4.52 33L4.52 15Z" fill="#2D76F9" fill-opacity="1.000000" fill-rule="nonzero"/>
		<path id="Vector" d="M26.27 15C25.26 15 24.26 15.23 23.35 15.67C22.45 16.11 21.65 16.76 21.02 17.55L21.02 15L15.02 15L15.02 33L21.02 33L21.02 24.75C21.02 23.95 21.34 23.19 21.9 22.62C22.46 22.06 23.23 21.75 24.02 21.75C24.82 21.75 25.58 22.06 26.14 22.62C26.71 23.19 27.02 23.95 27.02 24.75L27.02 33L33.02 33L33.02 21.75C33.02 19.95 32.31 18.24 31.04 16.97C29.78 15.71 28.06 15 26.27 15Z" fill="#2D76F9" fill-opacity="1.000000" fill-rule="nonzero"/>
	</g>
</svg>
