<svg width="135.000000" height="36.000000" viewBox="0 0 135 36" fill="none" xmlns="http://www.w3.org/2000/svg" xmlns:xlink="http://www.w3.org/1999/xlink">
	<desc>
			Created with Pixso.
	</desc>
	<defs>
		<clipPath id="clip1_169">
			<rect id="uim:clock-three" width="18.000000" height="18.000000" transform="translate(9.000000 9.000000)" fill="white" fill-opacity="0"/>
		</clipPath>
	</defs>
	<path id="Polygon 1" d="M14.46 3.53L3.53 14.46C1.58 16.41 1.58 19.58 3.53 21.53L14.46 32.46C16.41 34.41 19.58 34.41 21.53 32.46L32.46 21.53C34.41 19.58 34.41 16.41 32.46 14.46L21.53 3.53C19.58 1.58 16.41 1.58 14.46 3.53Z" fill="#D6E5FD" fill-opacity="1.000000" fill-rule="evenodd"/>
	<rect id="uim:clock-three" width="18.000000" height="18.000000" transform="translate(9.000000 9.000000)" fill="#FFFFFF" fill-opacity="0"/>
	<g clip-path="url(#clip1_169)">
		<path id="Vector" d="M18 13.5C18.19 13.5 18.38 13.57 18.53 13.71C18.67 13.86 18.75 14.05 18.75 14.25L18.75 17.25L20.25 17.25C20.44 17.25 20.63 17.32 20.78 17.46C20.92 17.61 21 17.8 21 18C21 18.19 20.92 18.38 20.78 18.53C20.63 18.67 20.44 18.75 20.25 18.75L18 18.75C17.8 18.75 17.61 18.67 17.46 18.53C17.32 18.38 17.25 18.19 17.25 18L17.25 14.25C17.25 14.05 17.32 13.86 17.46 13.71C17.61 13.57 17.8 13.5 18 13.5Z" fill="#2D76F9" fill-opacity="1.000000" fill-rule="nonzero"/>
		<g opacity="0.500000">
			<path id="Vector" d="M10.5 18C10.5 19.48 10.93 20.93 11.76 22.16C12.58 23.4 13.75 24.36 15.12 24.92C16.5 25.49 18 25.64 19.46 25.35C20.91 25.06 22.25 24.35 23.3 23.3C24.35 22.25 25.06 20.91 25.35 19.46C25.64 18 25.49 16.5 24.92 15.12C24.36 13.75 23.4 12.58 22.16 11.76C20.93 10.93 19.48 10.5 18 10.5C17.01 10.5 16.03 10.69 15.12 11.07C14.21 11.44 13.39 12 12.69 12.69C11.29 14.1 10.5 16.01 10.5 18ZM17.25 14.25C17.25 14.05 17.32 13.86 17.46 13.71C17.61 13.57 17.8 13.5 18 13.5C18.19 13.5 18.38 13.57 18.53 13.71C18.67 13.86 18.75 14.05 18.75 14.25L18.75 17.25L20.25 17.25C20.44 17.25 20.63 17.32 20.78 17.46C20.92 17.61 21 17.8 21 18C21 18.19 20.92 18.38 20.78 18.53C20.63 18.67 20.44 18.75 20.25 18.75L18 18.75C17.8 18.75 17.61 18.67 17.46 18.53C17.32 18.38 17.25 18.19 17.25 18L17.25 14.25Z" fill="#2D76F9" fill-opacity="1.000000" fill-rule="nonzero"/>
		</g>
	</g>
	<path id="Remindme" d="M85.17 13.15Q85.52 13.41 86.07 13.41Q86.6 13.41 86.95 13.16Q86.99 13.12 87.04 13.08Q87.16 12.96 87.25 12.82Q87.4 12.55 87.4 12.2Q87.4 11.86 87.25 11.6Q87.16 11.46 87.03 11.34Q86.97 11.3 86.92 11.25Q86.57 11.02 86.07 11.02Q85.5 11.02 85.15 11.29Q85.12 11.32 85.09 11.34Q84.97 11.45 84.89 11.58Q84.73 11.84 84.73 12.2Q84.73 12.55 84.88 12.82Q84.96 12.96 85.09 13.08Q85.13 13.12 85.17 13.15ZM108.07 11.39Q107.79 11.22 107.39 11.22Q106.97 11.22 106.69 11.42Q106.64 11.45 106.59 11.5Q106.49 11.59 106.43 11.7Q106.3 11.93 106.3 12.22L106.3 16.49Q106.12 16.17 105.87 15.91Q105.57 15.59 105.16 15.37Q104.43 14.98 103.47 14.98Q102.54 14.98 101.79 15.34Q101.6 15.43 101.43 15.54Q101.26 15.65 101.1 15.78Q100.45 16.3 100.06 17.12Q99.56 18.15 99.56 19.51Q99.56 20.88 100.06 21.93Q100.46 22.79 101.12 23.33Q101.28 23.46 101.44 23.56Q101.71 23.74 101.99 23.86Q102.67 24.14 103.47 24.14Q104.37 24.14 105.08 23.78Q105.13 23.75 105.17 23.73Q105.6 23.49 105.91 23.15Q106.14 22.89 106.32 22.57L106.32 23.02Q106.32 23.37 106.47 23.62Q106.53 23.72 106.62 23.8Q106.67 23.85 106.73 23.89Q107.01 24.08 107.43 24.08Q107.84 24.08 108.12 23.89Q108.18 23.85 108.24 23.8Q108.33 23.71 108.39 23.61Q108.55 23.37 108.55 23.02L108.55 12.26Q108.55 11.97 108.43 11.76Q108.35 11.62 108.22 11.51Q108.15 11.44 108.07 11.39ZM57.73 23.17Q57.73 22.86 57.51 22.54L55.88 20.04Q55.5 19.46 55.1 19.13Q54.98 19.04 54.85 18.96Q54.55 18.77 54.19 18.69Q55.62 18.43 56.45 17.58Q56.5 17.53 56.55 17.47Q56.72 17.28 56.86 17.06Q57.39 16.22 57.39 15.05Q57.39 13.64 56.71 12.74Q56.52 12.49 56.27 12.27Q55.14 11.3 52.98 11.3L48.48 11.3Q48.02 11.3 47.74 11.52Q47.69 11.56 47.66 11.59Q47.62 11.63 47.58 11.67Q47.36 11.95 47.36 12.4L47.36 22.93Q47.36 23.37 47.57 23.66Q47.62 23.73 47.68 23.79Q47.76 23.87 47.85 23.93Q48.13 24.1 48.51 24.1Q48.92 24.1 49.19 23.92Q49.27 23.86 49.34 23.79Q49.39 23.74 49.43 23.68Q49.65 23.38 49.65 22.93L49.65 18.9L51.41 18.9Q52.06 18.9 52.46 19.13Q52.87 19.37 53.23 19.94L55.62 23.58Q55.78 23.82 56.01 23.96Q56.03 23.97 56.06 23.99Q56.22 24.07 56.39 24.1Q56.5 24.12 56.62 24.12Q56.89 24.12 57.12 24.02Q57.27 23.96 57.4 23.85Q57.59 23.7 57.67 23.51Q57.73 23.35 57.73 23.17ZM54.58 16.63Q53.97 17.12 52.66 17.12L49.63 17.12L49.63 13.11L52.66 13.11Q53.97 13.11 54.58 13.58Q54.67 13.65 54.75 13.73Q55.19 14.21 55.19 15.1Q55.19 15.95 54.77 16.44Q54.69 16.54 54.58 16.63ZM66.93 21.65Q66.8 21.58 66.64 21.58Q66.39 21.58 65.85 21.87Q65.29 22.12 64.85 22.27Q64.41 22.41 63.83 22.41Q62.73 22.41 62.14 21.87Q62.12 21.85 62.1 21.83Q61.51 21.24 61.4 20L66.71 20Q67.01 20 67.18 19.85Q67.4 19.66 67.4 19.23Q67.4 17.93 66.91 16.98Q66.6 16.36 66.12 15.92Q65.85 15.68 65.54 15.5Q64.66 14.98 63.47 14.98Q62.48 14.98 61.66 15.34Q61.45 15.44 61.25 15.55Q60.87 15.78 60.56 16.07Q60.06 16.53 59.73 17.17Q59.19 18.22 59.19 19.57Q59.19 21.3 60.02 22.44Q60.2 22.69 60.43 22.92Q60.65 23.13 60.9 23.31Q62.05 24.14 63.8 24.14Q64.5 24.14 65.27 23.93Q66.05 23.73 66.66 23.38Q67.18 23.09 67.3 22.67Q67.32 22.57 67.32 22.45Q67.32 22.05 67.14 21.82Q67.04 21.71 66.93 21.65ZM81.6 15.55Q80.87 14.98 79.69 14.98Q78.93 14.98 78.28 15.26Q78.11 15.33 77.95 15.43Q77.45 15.72 77.1 16.14Q76.91 16.37 76.77 16.63Q76.5 15.94 75.99 15.54Q75.28 14.98 74.13 14.98Q73.24 14.98 72.56 15.35Q72.55 15.35 72.54 15.36Q72.3 15.48 72.1 15.65Q71.7 15.97 71.43 16.45L71.43 16.02Q71.43 15.64 71.25 15.4Q71.2 15.33 71.13 15.28Q71.08 15.23 71.02 15.19Q70.75 15.01 70.37 15.01Q69.99 15.01 69.71 15.17Q69.63 15.22 69.56 15.29Q69.47 15.35 69.41 15.44Q69.23 15.68 69.23 16.06L69.23 23.02Q69.23 23.44 69.43 23.7Q69.48 23.77 69.55 23.83Q69.62 23.89 69.7 23.94Q69.97 24.1 70.35 24.1Q70.73 24.1 71.01 23.94Q71.09 23.89 71.16 23.83Q71.23 23.76 71.29 23.69Q71.48 23.43 71.48 23.02L71.48 19.01Q71.48 17.97 72 17.36Q72.18 17.15 72.41 17.01Q72.83 16.76 73.39 16.76Q73.99 16.76 74.34 17.06Q74.4 17.11 74.46 17.18Q74.81 17.61 74.81 18.59L74.81 23.02Q74.81 23.43 75.01 23.69Q75.06 23.77 75.13 23.83Q75.21 23.89 75.29 23.94Q75.57 24.1 75.95 24.1Q76.34 24.1 76.61 23.93Q76.68 23.88 76.75 23.83Q76.81 23.77 76.86 23.7Q77.06 23.44 77.06 23.02L77.06 19.01Q77.06 17.99 77.57 17.39Q77.58 17.38 77.59 17.36Q77.78 17.14 78.02 17Q78.43 16.76 78.99 16.76Q79.59 16.76 79.94 17.06Q80 17.11 80.06 17.18Q80.41 17.61 80.41 18.59L80.41 23.02Q80.41 23.45 80.62 23.71Q80.66 23.78 80.72 23.83Q80.79 23.89 80.87 23.93Q81.14 24.1 81.53 24.1Q81.95 24.1 82.24 23.91Q82.29 23.87 82.35 23.83Q82.41 23.77 82.46 23.7Q82.66 23.44 82.66 23.02L82.66 18.59Q82.66 16.69 81.9 15.83Q81.76 15.68 81.6 15.55ZM96.78 15.66Q96.01 14.98 94.63 14.98Q93.69 14.98 92.95 15.36Q92.93 15.37 92.92 15.37Q92.57 15.55 92.29 15.81Q91.96 16.11 91.72 16.51L91.72 16.02Q91.72 15.73 91.59 15.51Q91.52 15.39 91.42 15.29Q91.34 15.22 91.26 15.17Q91.01 15.01 90.65 15.01Q90.21 15.01 89.92 15.22Q89.87 15.26 89.83 15.3Q89.73 15.4 89.66 15.51Q89.52 15.74 89.52 16.06L89.52 23.02Q89.52 23.44 89.71 23.71Q89.76 23.77 89.81 23.82Q89.85 23.85 89.88 23.88Q90.17 24.1 90.63 24.1Q91.1 24.1 91.39 23.88Q91.43 23.85 91.46 23.82Q91.53 23.75 91.58 23.68Q91.77 23.41 91.77 23.02L91.77 19.01Q91.77 18.16 92.17 17.6Q92.25 17.48 92.35 17.37Q92.52 17.2 92.71 17.07Q93.21 16.76 93.91 16.76Q94.64 16.76 95.02 17.12Q95.08 17.17 95.13 17.23Q95.51 17.69 95.51 18.72L95.51 23.02Q95.51 23.42 95.7 23.69Q95.75 23.76 95.82 23.82Q95.85 23.85 95.89 23.88Q96.19 24.1 96.65 24.1Q97.11 24.1 97.4 23.88Q97.43 23.85 97.46 23.82Q97.52 23.76 97.57 23.7Q97.76 23.43 97.76 23.02L97.76 18.59Q97.76 16.78 96.99 15.88Q96.89 15.76 96.78 15.66ZM85.42 23.94Q85.69 24.1 86.06 24.1Q86.44 24.1 86.72 23.94Q86.8 23.89 86.87 23.83Q86.95 23.76 87 23.69Q87.2 23.43 87.2 23.02L87.2 16.08Q87.2 15.67 87 15.41Q86.94 15.34 86.87 15.29Q86.81 15.23 86.73 15.19Q86.45 15.01 86.06 15.01Q85.68 15.01 85.4 15.18Q85.33 15.23 85.26 15.29Q85.2 15.34 85.15 15.4Q84.95 15.65 84.95 16.08L84.95 23.02Q84.95 23.44 85.15 23.7Q85.2 23.77 85.26 23.83Q85.33 23.89 85.42 23.94ZM62.39 16.86Q62.86 16.56 63.53 16.56Q64.2 16.56 64.65 16.88Q64.8 16.98 64.93 17.13Q65.44 17.69 65.47 18.79L61.4 18.79Q61.51 17.71 62.06 17.14Q62.21 16.98 62.39 16.86ZM105.3 22.05Q104.8 22.39 104.07 22.39Q103.39 22.39 102.91 22.09Q102.63 21.91 102.41 21.64Q101.82 20.88 101.82 19.51Q101.82 18.16 102.41 17.44Q102.59 17.22 102.81 17.07Q103.33 16.72 104.08 16.72Q104.79 16.72 105.28 17.04Q105.53 17.21 105.73 17.45Q106.32 18.18 106.32 19.55Q106.32 20.92 105.73 21.66Q105.54 21.89 105.3 22.05Z" fill="#212121" fill-opacity="1.000000" fill-rule="evenodd"/>
	<path id="Remindme" d="M123.23 15.55Q122.5 14.98 121.33 14.98Q120.56 14.98 119.92 15.26Q119.75 15.33 119.58 15.43Q119.08 15.72 118.74 16.14Q118.55 16.37 118.41 16.63Q118.13 15.94 117.62 15.54Q116.92 14.98 115.76 14.98Q114.88 14.98 114.19 15.35Q114.18 15.35 114.17 15.36Q113.94 15.48 113.74 15.65Q113.34 15.97 113.06 16.45L113.06 16.02Q113.06 15.64 112.88 15.4Q112.83 15.33 112.76 15.28Q112.71 15.23 112.66 15.19Q112.39 15.01 112 15.01Q111.63 15.01 111.35 15.17Q111.27 15.22 111.19 15.29Q111.11 15.35 111.04 15.44Q110.87 15.68 110.87 16.06L110.87 23.02Q110.87 23.44 111.07 23.7Q111.12 23.77 111.18 23.83Q111.25 23.89 111.34 23.94Q111.61 24.1 111.98 24.1Q112.36 24.1 112.64 23.94Q112.72 23.89 112.79 23.83Q112.87 23.76 112.92 23.69Q113.12 23.43 113.12 23.02L113.12 19.01Q113.12 17.97 113.63 17.36Q113.82 17.15 114.05 17.01Q114.46 16.76 115.02 16.76Q115.63 16.76 115.97 17.06Q116.04 17.11 116.1 17.18Q116.45 17.61 116.45 18.59L116.45 23.02Q116.45 23.43 116.64 23.69Q116.7 23.77 116.77 23.83Q116.84 23.89 116.93 23.94Q117.21 24.1 117.58 24.1Q117.97 24.1 118.25 23.93Q118.32 23.88 118.38 23.83Q118.45 23.77 118.5 23.7Q118.7 23.44 118.7 23.02L118.7 19.01Q118.7 17.99 119.2 17.39Q119.21 17.38 119.22 17.36Q119.41 17.14 119.65 17Q120.07 16.76 120.62 16.76Q121.23 16.76 121.57 17.06Q121.64 17.11 121.69 17.18Q122.05 17.61 122.05 18.59L122.05 23.02Q122.05 23.45 122.25 23.71Q122.3 23.78 122.36 23.83Q122.43 23.89 122.5 23.93Q122.78 24.1 123.16 24.1Q123.58 24.1 123.87 23.91Q123.93 23.87 123.98 23.83Q124.04 23.77 124.09 23.7Q124.3 23.44 124.3 23.02L124.3 18.59Q124.3 16.69 123.53 15.83Q123.39 15.68 123.23 15.55ZM133.83 21.65Q133.71 21.58 133.55 21.58Q133.3 21.58 132.75 21.87Q132.2 22.12 131.75 22.27Q131.31 22.41 130.74 22.41Q129.64 22.41 129.05 21.87Q129.03 21.85 129.01 21.83Q128.42 21.24 128.31 20L133.62 20Q133.92 20 134.09 19.85Q134.3 19.66 134.3 19.23Q134.3 17.93 133.81 16.98Q133.5 16.36 133.02 15.92Q132.76 15.68 132.45 15.5Q131.57 14.98 130.38 14.98Q129.39 14.98 128.56 15.34Q128.35 15.44 128.15 15.55Q127.78 15.78 127.46 16.07Q126.96 16.53 126.63 17.17Q126.1 18.22 126.1 19.57Q126.1 21.3 126.92 22.44Q127.11 22.69 127.34 22.92Q127.56 23.13 127.8 23.31Q128.95 24.14 130.7 24.14Q131.41 24.14 132.18 23.93Q132.95 23.73 133.56 23.38Q134.09 23.09 134.2 22.67Q134.23 22.57 134.23 22.45Q134.23 22.05 134.04 21.82Q133.95 21.71 133.83 21.65ZM129.3 16.86Q129.77 16.56 130.43 16.56Q131.11 16.56 131.56 16.88Q131.71 16.98 131.84 17.13Q132.34 17.69 132.38 18.79L128.31 18.79Q128.42 17.71 128.97 17.14Q129.12 16.98 129.3 16.86Z" fill="#2D76F9" fill-opacity="1.000000" fill-rule="evenodd"/>
</svg>
