<svg width="36.000000" height="36.000000" viewBox="0 0 36 36" fill="none" xmlns="http://www.w3.org/2000/svg" xmlns:xlink="http://www.w3.org/1999/xlink">
	<desc>
			Created with Pixso.
	</desc>
	<defs>
		<clipPath id="clip1_158">
			<rect id="uim:twitter" width="36.000000" height="36.000000" fill="white" fill-opacity="0"/>
		</clipPath>
	</defs>
	<rect id="uim:twitter" width="36.000000" height="36.000000" fill="#FFFFFF" fill-opacity="0"/>
	<g clip-path="url(#clip1_158)">
		<path id="Vector" d="M33 8.69C31.87 9.19 30.68 9.51 29.46 9.66C30.75 8.89 31.71 7.68 32.17 6.25C30.96 6.97 29.64 7.48 28.26 7.75C27.41 6.85 26.32 6.22 25.11 5.95C23.91 5.68 22.65 5.78 21.5 6.24C20.36 6.69 19.37 7.48 18.68 8.5C17.98 9.52 17.61 10.73 17.61 11.96C17.61 12.43 17.66 12.9 17.77 13.36C15.32 13.24 12.93 12.6 10.74 11.49C8.56 10.39 6.63 8.83 5.09 6.93C4.3 8.29 4.06 9.89 4.41 11.42C4.77 12.94 5.69 14.28 6.99 15.15C6.01 15.12 5.06 14.85 4.2 14.38L4.2 14.46C4.2 15.88 4.69 17.25 5.59 18.35C6.49 19.45 7.75 20.21 9.14 20.49C8.61 20.63 8.07 20.71 7.52 20.71C7.13 20.71 6.74 20.67 6.36 20.6C6.75 21.82 7.52 22.89 8.55 23.66C9.58 24.42 10.82 24.85 12.11 24.87C9.53 26.89 6.25 27.81 3 27.42C5.81 29.23 9.08 30.19 12.43 30.18C14.73 30.2 17.02 29.76 19.15 28.88C21.28 28.01 23.22 26.72 24.85 25.09C26.47 23.46 27.76 21.52 28.64 19.39C29.51 17.26 29.95 14.98 29.94 12.67C29.94 12.41 29.93 12.14 29.92 11.88C31.13 11.01 32.17 9.93 33 8.69Z" fill="#2D76F9" fill-opacity="1.000000" fill-rule="nonzero"/>
	</g>
</svg>
